<svg xmlns="http://www.w3.org/2000/svg" width="133.107" height="77.617" viewBox="0 0 133.107 77.617">
    <defs>
        <style>
            .cls-1{fill:#5d5f62}
        </style>
    </defs>
    <g id="Group_322" transform="translate(-71.351 -91.286)">
        <path id="Path_365" d="M94.453 131.807a7.035 7.035 0 0 0-2.06-1.612 6.17 6.17 0 0 0-2.934-.661 10.875 10.875 0 0 0-4.783 1.084 20.74 20.74 0 0 0-4.676 3.25l-.317-11.859-3.04.494a1.4 1.4 0 0 0-1.173 1.4l.2 14.2q-.582.582-1.163 1.215t-1.161 1.321h-1.995v4.808h13.035a20.122 20.122 0 0 0 5.416-.633 9.115 9.115 0 0 0 3.622-1.85 7.143 7.143 0 0 0 2.007-2.986 11.94 11.94 0 0 0 .633-4.043 6.152 6.152 0 0 0-.394-2.06 6.527 6.527 0 0 0-1.217-2.061m-3.515 6.235a3.014 3.014 0 0 1-1 1.269 5.934 5.934 0 0 1-2.008.951 12.214 12.214 0 0 1-3.329.37h-5.129a27.805 27.805 0 0 1 2.3-2.246 26.545 26.545 0 0 1 2.484-1.928 13.194 13.194 0 0 1 2.484-1.348 6.179 6.179 0 0 1 2.3-.5 2 2 0 0 1 1.585.662 2.213 2.213 0 0 1 .583 1.505 3.535 3.535 0 0 1-.266 1.268m41.938 14.268l-2.961-2.853a.812.812 0 0 0-.368-.212c-.035 0-.141.088-.318.265l-3.223 3.434-.212.318c0-.036.072.053.212.264l2.959 2.8c.212.212.335.317.37.317q.106 0 .37-.265l3.171-3.435c.176-.175.264-.281.264-.316 0-.071-.088-.178-.264-.318m2.352-17.411c-.212-.72-.473-1.453-.775-2.2l-2.737.874a1.548 1.548 0 0 0-1.008 2.243v.015a7.035 7.035 0 0 1 .429 2.26 2.674 2.674 0 0 1-.634 1.8 3.131 3.131 0 0 1-2.431.739H125.9a3.9 3.9 0 0 1-2.843-.871 3.819 3.819 0 0 1-1.691-2.987q-.159-1.427-.317-3.276t-.4-4.28c-.159-1.62.094.5-.082-1.528s-.379-4.187-.625-6.689l-3.317.693a1.4 1.4 0 0 0-1.1 1.5q.1 1.092.222 2.349c.121 1.339.111.587.207 1.981.088 1.264.03.836.155 2.193s.237 2.581.343 3.672.184 2.009.237 2.748.081 1.181.081 1.321a3.181 3.181 0 0 1-.451 1.85 2.577 2.577 0 0 1-1.188.925 9.095 9.095 0 0 1-2.421.4h-1.726a13.752 13.752 0 0 0-.423-1.823 11.181 11.181 0 0 0-1.771-3.514 7.871 7.871 0 0 0-2.59-2.203 6.813 6.813 0 0 0-3.171-.766 5.238 5.238 0 0 0-2.061.424 4.921 4.921 0 0 0-1.8 1.321 6.719 6.719 0 0 0-1.27 2.246 9.436 9.436 0 0 0-.475 3.143 5.52 5.52 0 0 0 2.113 4.439 6.928 6.928 0 0 0 2.221 1.136 8.8 8.8 0 0 0 2.642.4h1.585a5.872 5.872 0 0 1-.845 3.092 10.38 10.38 0 0 1-2.326 2.616 23.133 23.133 0 0 1-3.541 2.351c-.123.068-.249.136-.375.2l2.053 4.224c.208-.111.413-.215.622-.333a23.1 23.1 0 0 0 4.7-3.46 18.152 18.152 0 0 0 3.541-4.677 11.945 11.945 0 0 0 1.265-4.017h1.624a8.749 8.749 0 0 0 3.4-.527 7.507 7.507 0 0 0 3.355-2.273 8.12 8.12 0 0 0 1.427 1.4 6.044 6.044 0 0 0 1.638.873 8.481 8.481 0 0 0 2.008.423 7.437 7.437 0 0 0 1.363.1h1.427a11.042 11.042 0 0 0 3.884-.607 7.473 7.473 0 0 0 2.616-1.585 5.8 5.8 0 0 0 1.453-2.272 8.285 8.285 0 0 0 .45-2.722 11.945 11.945 0 0 0-.5-3.355m-30.058 5.6q-.66.027-1.295.026a4.538 4.538 0 0 1-1.241-.132 1.5 1.5 0 0 1-.66-.343.915.915 0 0 1-.265-.476 2.62 2.62 0 0 1-.053-.528 1.69 1.69 0 0 1 .554-1.268 1.826 1.826 0 0 1 1.295-.53 2.105 2.105 0 0 1 1.453.688 5.164 5.164 0 0 1 1.137 2.536c-.178 0-.485.01-.925.027" class="cls-1"/>
        <path id="Path_366" fill="#61a532" d="M175.3 168.9h-.054zm25.88-38.386v-.053c-2.208-.914-10.139-5.088-25.816-5.236-13.589-.237-26.008 5.238-26.008 5.238v.1c-.007.209 0 .321 0 .524v11.933a25.726 25.726 0 0 0 2.473 11.051v.01l.03.065q.168.354.345.7c.128.247.291.548.483.892.1.166.2.345.315.528a25.832 25.832 0 0 0 1.733 2.548l.043.054 14.882-14.291a2.366 2.366 0 0 1 3.307.029l3.586 3.566 5.816-5.814c-.06-.039-.121-.077-.17-.106-.077-.048-.154-.1-.226-.142a.9.9 0 0 1-.261-.278l-.025-.037a1.129 1.129 0 0 1 .5-2.006c.759-.311 1.547-.558 2.31-.8l.115-.036c1.627-.509 3.362-1.049 5.105-1.546a1.439 1.439 0 0 1 1.137.318 1.136 1.136 0 0 1 .279 1.511l-1.972 4.726c-.211.509-.421 1.018-.638 1.526a3.255 3.255 0 0 1-.363.651 1.377 1.377 0 0 1-.884.641.947.947 0 0 1-.118.008 1.507 1.507 0 0 1-.907-.4 1.964 1.964 0 0 0-.75-.467l-7.268 7.267a2.364 2.364 0 0 1-3.34 0l-3.62-3.6-13.265 12.738a25.853 25.853 0 0 0 4.6 3.284c.034.021.068.037.1.058a25.733 25.733 0 0 0 10.956 3.18l1.629.05H175.398v.002l1.458-.049a25.878 25.878 0 0 0 24.317-25.829V131.09c.003-.201.012-.412.003-.573z"/>
        <path id="Path_367" d="M175.47 99.206a11.972 11.972 0 0 0-.6 1.775c-1.64 4.414-6.761 5.218-6.806 5.228a.161.161 0 0 0-.041.006c-.356.061-8.792 1.58-13.537 4.5-4.272 2.49-6.9 6.527-7.818 12a28.514 28.514 0 0 0-.289 6.579 72.888 72.888 0 0 1 41.011-5.491 59.97 59.97 0 0 1 16.732 5.447 22.709 22.709 0 0 0 .159-6.536 19.018 19.018 0 0 0-2.16-6.316 15.174 15.174 0 0 0-5.653-5.686c-4.743-2.924-13.182-4.443-13.539-4.5a.112.112 0 0 0-.038-.008 10.656 10.656 0 0 1-4.24-1.853 2.452 2.452 0 0 1-.925-2.63c.441-1.286 2.177-5.369 4.837-6.863a2.109 2.109 0 0 0 .747-2.455 1.339 1.339 0 0 0-1.9-.966 13.955 13.955 0 0 0-4.869 5.508c-.248.454-.689 1.338-1.07 2.255" class="cls-1"/>
    </g>
</svg>
