<svg xmlns="http://www.w3.org/2000/svg" width="86.586" height="64.18" viewBox="0 0 86.586 64.18">
    <g>
        <g>
            <path fill="#f9d976" d="M85.423 21.447a2.215 2.215 0 0 0-2.052.33L43.293 54.316 3.215 21.781a2.219 2.219 0 0 0-2.052-.333A1.562 1.562 0 0 0 0 22.859v27.506a1.408 1.408 0 0 0 .55 1.082l41.41 33.617a2.213 2.213 0 0 0 2.665 0l41.411-33.618a1.408 1.408 0 0 0 .55-1.082V22.859a1.562 1.562 0 0 0-1.163-1.412z" transform="translate(0 -21.331) translate(0 21.331) translate(0 -21.331)"/>
        </g>
    </g>
</svg>
