<svg xmlns="http://www.w3.org/2000/svg" width="75.284" height="61.168" viewBox="0 0 75.284 61.168">
    <path fill="#03a9f4" d="M75.284 55.241a32.178 32.178 0 0 1-8.893 2.437 15.347 15.347 0 0 0 6.79-8.531 30.844 30.844 0 0 1-9.787 3.736A15.433 15.433 0 0 0 36.7 63.438a15.892 15.892 0 0 0 .358 3.52A43.686 43.686 0 0 1 5.242 50.814a15.438 15.438 0 0 0 4.743 20.628 15.242 15.242 0 0 1-6.973-1.9v.169a15.5 15.5 0 0 0 12.365 15.164 15.4 15.4 0 0 1-4.047.508 13.646 13.646 0 0 1-2.922-.263A15.581 15.581 0 0 0 22.83 95.871a31.012 31.012 0 0 1-19.136 6.583A28.908 28.908 0 0 1 0 102.242a43.45 43.45 0 0 0 23.677 6.926c28.4 0 43.928-23.526 43.928-43.919 0-.682-.024-1.341-.056-2a30.789 30.789 0 0 0 7.735-8.008z" transform="translate(0 -48)"/>
</svg>
