<svg xmlns="http://www.w3.org/2000/svg" width="73.311" height="73.311" viewBox="0 0 73.311 73.311">
    <path fill="#4caf50" d="M36.664 0h-.018A36.632 36.632 0 0 0 6.978 58.14L2.41 71.757l14.089-4.5A36.649 36.649 0 1 0 36.664 0z"/>
    <path fill="#fafafa" d="M149.9 152.085c-.884 2.5-4.394 4.568-7.194 5.173-1.915.408-4.417.733-12.839-2.758-10.772-4.463-17.709-15.409-18.25-16.119-.518-.71-4.353-5.8-4.353-11.056a11.7 11.7 0 0 1 3.748-8.921 5.326 5.326 0 0 1 3.748-1.315c.454 0 .861.023 1.228.041 1.077.046 1.617.11 2.328 1.81.884 2.131 3.038 7.391 3.294 7.931a2.182 2.182 0 0 1 .156 1.984 6.335 6.335 0 0 1-1.187 1.682c-.541.623-1.054 1.1-1.594 1.769-.495.582-1.054 1.205-.431 2.282a32.535 32.535 0 0 0 5.947 7.391 26.948 26.948 0 0 0 8.6 5.3 2.318 2.318 0 0 0 2.584-.408 44.35 44.35 0 0 0 2.864-3.794 2.046 2.046 0 0 1 2.63-.8c.99.344 6.227 2.932 7.3 3.469s1.787.8 2.048 1.251.256 2.586-.627 5.088z" transform="translate(-91.905 -100.323)"/>
</svg>
