<?xml version="1.0" encoding="UTF-8" standalone="no"?>
<svg
   xmlns:dc="http://purl.org/dc/elements/1.1/"
   xmlns:cc="http://creativecommons.org/ns#"
   xmlns:rdf="http://www.w3.org/1999/02/22-rdf-syntax-ns#"
   xmlns:svg="http://www.w3.org/2000/svg"
   xmlns="http://www.w3.org/2000/svg"
   id="svg138"
   version="1.1"
   viewBox="0 0 100 128"
   height="128px"
   width="100px">
  <defs
     id="defs132" />
  <g
     id="layer1">
    <g
       transform="matrix(1.6491278,0,0,-1.6491278,-239.22642,316.92656)"
       id="g119">
      <path
         id="path102"
         style="fill:#58b935;fill-opacity:1;fill-rule:nonzero;stroke:none"
         d="m 201.1758,152.9475 v 0.053 c -2.207,0.914 -10.139,5.088 -25.815,5.236 v 0.004 c -13.589,0.237 -26.009,-5.238 -26.009,-5.238 v -0.105 c -0.007,-0.209 0,-0.321 0,-0.524 v -11.929 c 0,-3.955 0.886,-7.702 2.473,-11.051 0,0 0,-0.003 0.004,-0.01 0.01,-0.02 0.021,-0.044 0.031,-0.064 0.111,-0.237 0.226,-0.47 0.344,-0.7 0.128,-0.247 0.29,-0.547 0.484,-0.892 0.094,-0.166 0.202,-0.345 0.314,-0.528 0.527,-0.885 1.109,-1.737 1.734,-2.547 0.013,-0.019 0.029,-0.037 0.043,-0.055 l 14.881,14.291 c 0.927,0.89 2.395,0.878 3.307,-0.028 l 3.586,-3.567 5.816,5.815 c -0.06,0.038 -0.121,0.076 -0.17,0.106 -0.077,0.047 -0.154,0.094 -0.225,0.141 -0.135,0.088 -0.211,0.202 -0.262,0.278 -0.008,0.012 -0.015,0.025 -0.025,0.037 -0.248,0.305 -0.519,0.715 -0.403,1.174 0.119,0.463 0.571,0.696 0.901,0.832 0.759,0.312 1.547,0.558 2.309,0.797 l 0.115,0.036 c 1.628,0.509 3.362,1.049 5.105,1.546 0.457,0.131 0.948,-0.178 1.138,-0.317 0.318,-0.233 0.625,-0.685 0.278,-1.512 l -1.972,-4.726 c -0.211,-0.509 -0.421,-1.018 -0.637,-1.525 -0.107,-0.249 -0.229,-0.469 -0.364,-0.652 -0.212,-0.288 -0.484,-0.588 -0.883,-0.641 -0.04,-0.005 -0.079,-0.008 -0.119,-0.008 -0.35,0 -0.653,0.202 -0.907,0.405 -0.424,0.341 -0.631,0.453 -0.75,0.467 l -7.267,-7.266 c -0.922,-0.922 -2.416,-0.924 -3.341,-0.005 l -3.619,3.599 -13.266,-12.738 c 1.405,-1.255 2.948,-2.357 4.605,-3.284 0.034,-0.021 0.067,-0.037 0.101,-0.058 3.281,-1.818 6.999,-2.943 10.956,-3.18 l 1.629,-0.05 v -10e-4 l 0.02,10e-4 0.079,-0.003 h 0.007 v 0.006 l 1.457,0.048 c 13.565,0.809 24.317,12.06 24.317,25.829 v 11.93 c 0,0.201 0.009,0.412 0,0.573 m -25.88,-38.386 v 0.002 l -0.054,-0.002 z" />
      <path
         id="path106"
         style="fill:#696767;fill-opacity:1;fill-rule:nonzero;stroke:none"
         d="m 175.4697,184.259 c -0.256,-0.618 -0.483,-1.251 -0.604,-1.776 -1.641,-4.413 -6.762,-5.218 -6.807,-5.227 -0.017,0 -0.027,-0.003 -0.041,-0.007 -0.356,-0.061 -8.792,-1.579 -13.536,-4.503 -4.272,-2.49 -6.9,-6.528 -7.819,-12.006 -0.401,-2.4 -0.412,-4.563 -0.289,-6.579 18.154,8.142 34.694,6.564 41.011,5.492 8.751,-1.486 14.79,-4.503 16.732,-5.448 0.236,1.899 0.544,4.239 0.159,6.536 -0.398,2.381 -1.12,4.489 -2.16,6.316 v 0.002 0.001 c -1.352,2.376 -3.24,4.279 -5.654,5.685 -4.743,2.925 -13.181,4.444 -13.539,4.504 -0.012,0.004 -0.023,0.008 -0.038,0.008 -0.027,0.002 -2.256,0.364 -4.24,1.853 -1.189,0.998 -1.069,2.113 -0.924,2.63 0.44,1.286 2.176,5.369 4.836,6.863 0.729,0.413 1.066,1.511 0.747,2.454 -0.317,0.944 -1.166,1.376 -1.896,0.967 -2.243,-1.264 -3.885,-3.692 -4.868,-5.508 -0.248,-0.455 -0.689,-1.339 -1.07,-2.256" />
    </g>
  </g>
  <metadata
     id="metadata168">
    <rdf:RDF>
      <cc:Work
         rdf:about="">
        <dc:title></dc:title>
      </cc:Work>
    </rdf:RDF>
  </metadata>
</svg>
